<mxfile host="app.diagrams.net" modified="2024-04-11T12:51:42.924Z" agent="Mozilla/5.0 (Windows NT 10.0; Win64; x64) AppleWebKit/537.36 (KHTML, like Gecko) Chrome/123.0.0.0 Safari/537.36" etag="Js68bs10DYDys0VDRQc6" version="24.2.3" type="github">
  <diagram name="Page-1" id="CS0OK4rxvPd4OO_dPPyx">
    <mxGraphModel dx="1615" dy="803" grid="1" gridSize="10" guides="1" tooltips="1" connect="1" arrows="1" fold="1" page="1" pageScale="1" pageWidth="827" pageHeight="1169" math="0" shadow="0">
      <root>
        <mxCell id="0" />
        <mxCell id="1" parent="0" />
        <mxCell id="40D9IYlOiQpd5SxmBgQe-1" value="" style="shape=image;verticalLabelPosition=bottom;labelBackgroundColor=default;verticalAlign=top;aspect=fixed;imageAspect=0;image=data:image/png,iVBORw0KGgoAAAANSUhEUgAAAisAAAG8CAYAAAAfJeVOAAAAAXNSR0IArs4c6QAAIABJREFUeF7snQn4TdX6x19zIlSikES5UaRbJGUOySyza8iUSoZouFKoDKkoImQmmUVKI7q4hghl9quQeYjMGf/Pd/Xf557fcc7Z6+wz7eG7n8dzu7+z1trv+rzr7PU973rX2mmuXLlyRXiRAAmQAAmQAAmQgE0JpKFYsalnaBYJkAAJkAAJkIAiQLHCgUACJEACJEACJGBrAhQrtnYPjSMBEiABEiABEqBY4RggARIgARIgARKwNQFbiZWUlBT54ouFcvr0WUHeb5o0aSRLlszy+OPV5Y477rA1SBpHAiRAAiRAAiQQHwK2ECv79++XkSNHy80355cKFapI1qzX+Xp76tRJWbLkGzlwYLd07NhBbrnllviQYKskQAIkQAIkQAK2JJB0sbJ+/XqZPXuePPnkM5IhQ8aQkC5cOC/jx4+QJ56oIyVKlLAlTBpFAiRAAiRAAiQQewJJFSuIqIwYMVo6dOiq3bPRo9+TZ55hhEUbGAuSAAmQAAmQgMMJJFWsvPZaH2nd+tmwEZVAvoiwTJgwXF5/vY/D0dN8EiABEiABEiABHQJJEys7duyQRYv+K48/XlfHzlRlvvjiU6lUqYzceeedEddlBRIgARIgARIgAWcRSJpY+eCD4VK5cp1UybS66JB0+91386RTp2d1q7AcCZAACZAACZCAQwkkTawMGDBI/vWvpyxjmzJllPz73y9ars+KJEACJEACJEACziCQNLHSv/9b0qJFR8uUJk8eKT17vmS5PiuSAAmQAAmQAAk4g0DSxAojK84YILSSBEiABEiABJJNIGlihTkryXY9708CJEACJEACziCQNLHC3UDOGCC0kgRIgARIgASSTSBpYgUd5zkryXY/708CJEACJEAC9ieQVLHCE2ztP0BoIQmQAAmQAAkkm0BSxQo6z3cDJXsI8P4kQAIkQAIkYG8CSRcrwMO3Ltt7kNA6EiABEiABEkgmAVuIFQNASkqKfPHFQjl9+qxs3rxJiha9W7JkySyPP15d7rjjjmRy4r1JgARIgARIgASSRMBWYsWfwbvvvivdu3dPEhbelgRIgARIgARIwC4EKFbs4gnaQQIkQAIkQAIkEJQAxQoHBgmQAAmQAAmQgK0JUKzY2j00jgRIgARIgARIgGKFY4AESIAESIAESMDWBChWbO0eGkcCJEACJEACJECxwjFAAiRAAiRAAiRgawIJESszZsyQ33//PSIQ//3vf6VMmTIR1bn11lulUaNGEdVhYRIgARIgARIgAXsTSIhYsYKA56xYocY6JEACJEACJOA+AhQr7vMpe0QCJEACJEACriJAseIqd7IzJEACJEACJOA+AhQr7vMpe0QCJEACJEACriJAseIqd7IzJEACJEACJOA+AhQr7vMpe0QCJEACJEACriJAseIqd7IzJEACJEACJOA+AhQr7vMpe0QCJEACJEACriJAseIqd7IzJEACJEACJOA+AhQr7vMpe0QCJEACJEACriJAseIqd7IzJEACJEACJOA+AhQr7vMpe0QCJEACJEACriJAseIqd7IzJEACJEACJOA+AhQr7vMpe0QCJEACJEACriJAseIqd7IzJEACJEACJOA+AhQr7vMpe0QCJEACJEACriJAseIqd7IzJEACJEACJOA+AhQr7vMpe0QCJEACJEACriJgS7Fy9uxZadOmjYwbN04yZ87sKuDsDAmQAAmQAAmQQGQEbCdWLl++LH369JEmTZrItGnT1H+nTZs2sl6xNAmQAAmQAAmQgGsI2E6svPvuu1K7dm258847ZceOHTJ//nzp3r27a4CzI4khcOzYcRkxYrRcuHBRLl++kpib8i4+AmnSiKRNm0YqViwr5cqVTSqZb75ZIkuXLhORNEm1gzf/H4F06dJK5swZpWPH9pItWzYtNPSjFqaEFbLiw2iMs5VYmTRpktxxxx1SpkwZX5/++9//SkpKirRs2TKafrKuxwj07/+21K3bRK67Tu9B6DE8Cevu0qXfSvr0l6RRo0YJu6f/jWbOnCNnzlyUSpWqJeX+vGloAidPnpCFC2dJ9+7dTDHRj6aIklIgEh9Ga6BtxMpXX30lp0+flvr161/Vpzlz5kiWLFmkWjU+cKJ1uFfq9+7dT9q16+SV7tq2n4iwTJnyobz88stJsbF//7ekRYuOSbk3b2pOYPLkkdKz50umBelHU0RJK6Drw2gNtIVY2bBhgyCC8vTTT4fsz4cffqgiLvfee2+0fWZ9DxB47bV+0r49xYodXD1jxpikLeVykrPDCAhtg+5ERz/a14+6Poy2B0kXK3v27JEJEyZIr169TPvy5ptvSuvWrSVfvnymZVnA2wQoVuzjf4oV+/jCbpboTnQUK3bz3P/s0fVhtD1Iqlg5ceKEvPXWW2rHT4YMGUz7cuHCBVX2pZde0k7KMm2UBVxJgGLFPm6lWLGPL+xmie5ER7FiN895SKxYFR6RChz7upiWxZMAxUo86UbWNsVKZLy8VJpixfne1vVhtD1NWmQlmiWdSJaOogXE+s4kQLFiH79RrNjHF3azRHeiY2TFbp7zSGQlFsmyOkm59nUvLYs3AYqVeBPWb59iRZ+V10pSrDjf47o+jLanCY+sxHIbcrjtztGCYX1nE7CDWFmxYpk0blxT1q//RW644cakAjVs2bhxl2TLlt3UlljaTrFiijtogVj6wJoFoWvFyjbdiS7WkZVY2R8J12TcM5x9sbJH14eRsApWNqFiJR4HvAU7SC5aKKzvfAK6YmXjxg3y+OPl5f77H5S5c7+KuOPhRIDOw8AokzVrVlm7dkeqd2GlpGyTSpUeVDbpioxQHaBYCe9aHG710UfD5auvFsiuXb+pk49vuSWPPPhgGWnRoq2UKHF/xGMj2go64yfwHlbqWLHzwoXzcvz4McmZM5ekwWE6Fi/diU5XrOj6MdB+K9/jeH2n3OpDi0PEVy1hYiWeR+f7H9EfLRDWdwcBXbHyyivd5aef1snPP6+Xb79dIXfc8Y+IAFh5yPnfwKifJ09e6dGjlzRo0NT38Ztv9pLPP/9U9u7dQ7ESkVf+V1hnkjt48IA0aFBdbropt3To0EmKFr1H0qVLL/v375Fly76X9et/lAkTplu0wHo1K5OWlTrWLYy+ZizFSjR+tPI9drpYid57f7eg68No75cQsXL48GEZNmxY3F5KaLz88LnnnpObbropWias7wICOmLl3Llzcv/9hWXYsDEyZswINUn16vWmr/fBHvyBD6j8+XNcRWv37uPqb0bZKVPmyMCBfWXbti1SpMjd8v77o6VQoTtTlenS5UVZuXKZzJz5hfr7xYsXpGTJotKiRRt57723fGLl4sWLMmTIQJk1a6rge5U//23SsWMXadKkhc8OlBk4sI/MmvWJnD17Rh5+uLzUrFlPunZ9SrWzadPPVy1PBfYrWN/Hjx8pEyeOkd27d0nOnDmlceMW0rXrS5IuXbqwI8buy0Dt2jWTEyf+lE8+mR+0L1euXPFFD3T5m/kIv+z79+8tc+fOUD4qV66S8tFzz7Xz+dqKD8zEio79VmzTGevBBonuRKcjOiPxYyAnne9x4HKu/3cmku/U1Kmfyrvv9peff96g5qunnuosrVt3CPvc8WfnVB9GO60kRKzg0LfGjRunCnFHa3hg/bNnz8r06dPVoXG8SEBHrMyZM00GDXpD/vvfn2XhwvnSq1cP+eGHLZI+/d9n/uiIlYULP5OnnmohS5askeuuu07Vwy90//pYYnr11Tcle/bs0r37s5IpUyaZPn1BqjKoX63aIyq6c9ttt8uXXy4QRFYGDRomTZrU8k1gsBHRlrff/kCKFLlH/vOfRfLqqy9I//6DpVGj5qrN3r1flvnzZ8vbbw9TZb7//lvVzz/+OGpZrGDyRZuvvdZf7rrrbvnll+3y4oudpW7dhvLii686Vqz8+edxuffegjJ+/HSpWLGK6RdHh79OmZ49n5evv/5CBg0aKv/4R1FZtmyJvPXW63LkyKGQYkXHB2ZiJV62GfcNN9bjKVYi9WMgJ53vcazESoECBdX3KNT3160+NP1ymRRIiFiJ1kjWJ4FICeiIlUaNashDD5WVbt1e9kUy+vV7Rx5/vI62WNEJH0+b9pmUKfP3m4cXLJgrnTu3l+3bD0j69OlTCSJMJHiQYfJv3bqx/POfD0jJkg+pKAgiIsgNuPfeQvLOO8Okfv0mPiQDBvRWE9/ixT/IqVMnVZm33x6aqky/fq/KqFHDLImVzJmvlXvvvV1FHu6/v5TvvvPmzVJC6aeffnOsWFm/fq3Url1ZVq3arHJUjKt9++aydOli3///4Yet6r/N+CNnwqwMfFS8eEF5772RUrv2E757IPo2YsSQoGJF1wfhJrp42YbkceO+4cZ6PMVKJH7Ey00DOel8j6+99tpUXbh06bL89de5iL9T8PvV39+Fsnjx6pDPHePGTvZhpM/wwPIUK9ESZH1bEjATKzt3/ioVK5aUZcs2SN68f7++AZP+li2bZNKkWTEVK+vW7ZAbb/x7edJ4KG7atFu9Edr/oYlk3xde6CRz534jZcveJ8uWrRfYaYiVX37ZIXXqPCorVmz02Yw2Fy36Wlq3biQpKQdl8+aNavINVcbKMtDvv++SWrUqSaiH9ZYte9WLRkNddl4GCjXJHTp0QM6cOSPr1q2RLl06qAlJhz+WA8x8ZJRZuXKTIFfJuAw/GsnU/mND1wfhxAr6Eg/b/MVKuLGeDLESzI/YDWdFrHz22SLJnv1/y77+YyOSZaBw39+MGTMFjega7Jzsw2gnCoqVaAmyvi0JmImVAQP6yIcfvpcqRwG5CbiwLIRJZOXK5YLoi3/497///Y80aVL7ql+/wXbr6Cwj+ZfJkeN6efjh4pI/fwHJlOkaJZr8f/HpTJaGWAk3EaKMbr/Qd+yOwSQ3e/aXctNNua7yN+xNmzatI8UKdrSUKFFIxo37RCpVuvqt7pHyj0SsBEZzFi/+Rlq1ahg0sqLrg1iJlUhs8xcr/t8VnQTUWOWsROJHq2Il3DJQJN+pUN9N/NiIpVixmw+jnSgoVqIlyPq2JBBOrCBB7cEH75a2bTtK5cqPpbK/a9cOUq1aTZU4umnTT1K9ejkVni1UqLAqhyRT5IQY4mT16hVqJwmWQiA2/K9IxQoe+oMHD1AJtSNHTlTLUf4PfAgCLB8EXwb6O4z8v2UgLBU19pnTv/9rMnLkUGU3fqWb9cvfdggnTOjIgUGOSqSXnSMr6Evbtk3l2LFjMmPGZ758JaOPVvib+cgI5b///iipVau+DydyVoYPHxxUrOj6IJxYMZafwo0fK7bZQaxE4sdgYiXS77F/lDTS79R7741K9d3ED6e/l3HNl4Gc7MNInxuB5WMuVpYsWSIVK1ZUOxWwY8C4jL/joZAjx9U7KKLtCOuTgD+BcGIFD4aOHVvK2rXb5frrb0gFDtGWyZPHyfLlG/4/j6WI2qmBPJKUlO0qRwO/cg2xgm3FDz10j7z77gipVKmqyisxDoCzIlawCwjvv4LwgTgJ/HWK+y9Y8KkSLEWKFFMJtsh18U+wfe21F31l/vGPu1XuxVtv9ZWjR48ouzNnziwlS4bvV6DtSO4cP36U9OkzQB588GHBu72w3RvRHgi7cJfdxcqBA/ulfv1qKmr01FPPyd13F1e/cPft2yNTpoyTOXOmC5btsma9TvnfjL9OGSTYfvMNEmyHqQRbROwwaR0+fFDdK1hehY4PDL8hgTvw8D/sROvd+yVT+63YpjPWg42RWEVW0HYkfgy0N9LvcaBYieQ7dfvthaR3bySq36O+m/j+vvHG274dfW71YbQzlKvECn4xI2mRFwmEEytt2jSRv/76Sz7+eO5VoHbv3imPPFJCsN0YIgViAGex7N+/Tx544EFp1KiZdO3aMdW5J8OGvaO29GInB7bRB25dDhcaN8v8DxQrGOOIvmDr8pEjR9TWZWx9bNq0pa8vEDzYFjt79jS1LRZJxHXqNPBtXcYkZtavYHZNnTpBJk78SFJSdkiGDOmlcOEi0rRpq1T3Djby7C5WYDO2Lo8e/YHvULjLl6+ohNvSpR+Wli3bSbFiJVTX9Pib+wjbg/v1e00JISRplilTXh5/vLZ07/6Myj0KtRxg5gPDb8H8gNwi7EQzGz9WbLODWInEj8HsjeR7HChWIvlO4dmCrctYMsQPegjkJ5/s6HOZW30Y7ayUNLEyatQo6devn+zbt09y584tPXr0kG7duvn6M3ToUBk+fLj89ttvkitXLmnTpo307t3bl2NgRGq++OIL9ff169cLjvKvWbNmtExY3wUEzHJWXNBFx3TBCWLFDjA/+OBd+fjjCbJixc92MCeVDfGyLZaRFdtBs5lByfZhtDiSIlaOHz8uBQsWlP79+0vTpk3VktH+/fulVq1aqj99+vSRadOmyZAhQ6RYsWKydetWad++vTRr1kwJHFyGWClRooS89957UqBAAbUjwX/pKVo4rO9cAhQr9vEdxcrVvkBC5tatm9RWcByqt3TpEunb92XB4YBPP901qc5LpG0UK/FxtR19GG1PkyJWUlJSpGTJkoI3JxcvXjxVH7BdEILju+++k4ceesj32SeffCKdOnWSo0ePphIr8+fP94mcaGGwvnsIUKzYx5cUK8HFyosvPid4/9P58+clX778ajkNS3rhdlYlwquY6BJlG8VKfDxqRx9G29OkiBW8tK1MmTKyfft2JTRq164t9evXV78wfvjhBylVqtRV5zZcunRJcDz6yZMnBfWNyMrevXslT57/HeYULRDWdwcBihX7+JFixT6+sJslFCt280jk9uj6MPKWU9eIuVjBm5Uffvhh2bNnj+TN+78Dj7788kupXr26OmgJmdPYTfDVV18J/j516lQpX768zJ07V1atWiWlS5eWpUuXys0333xV/7B8hF8eoXYdRQuE9d1BgGLFPn6kWLGPL+xmie5Ep/NuILv1zSv26PowWh4xFysHDx6UW265RT7//HMlToxr4MCB6mWGiIQEXjNnzpRGjRopIYMICl7uNHbsWJWjEuqiWInW9e6uT7FiH/9SrNjHF3azRHeio1ixm+f+Z4+uD6PtQczFCgyqV6+ebNu2TUaOHKkSadesWSNt27aVLl26yGuvvSarV69W/x599FG11fj111+XRYsWye+//67Oqejbt69gNxASZ8uVK6eiMGvXrlVtoj4uipVoXe/u+hQr9vEvxYp9fGE3S3QnOooVu3nOJWIFh1q9+OKLalnnjz/+UMtBECs9e/ZUeSlbtmyRZ599VokY5KH885//VOIEuSrGNXr0aLV1GTuBMmTIIHfffbfaEdSuXTuKFfuOW9tYRrFiG1fI9OkfqaMJknH16/eWtGz5vzMskmED7xmagK5YoR/tO4p0fRhtD+ISWYnWKNYngWgJ9O7dT9q2fVZF6nglj8CxY4dk1aol6odGMq7hw0dK6dKVJFeu3Mm4Pe8ZhgDexTVlyijp2TP8Cchogn6051CKxIfR9oBiJVqCrG9LAosWfS+//35IHYHPKzkEDh8+JDNmjJPXX+8rGTNmTIoR2Bb88su9pHnzdhQsSfFA6JsuXfqt5M+fWx555BFTy+hHU0RJKRCJD6M1kGIlWoKsb1sCs2fPlpSUX21rn9sNy5Ejmzp5Gsu4ybyQ8zZmzFg5ceJkMs3gvf0IwCeFC9+hNlboXvSjLqnElLPiw2gss61YwRZonMXCiwS8SoDfAa96PnS/OSacPyboQ2s+tK1Yeffdd6V79+7WesVaJOACAvwOuMCJMe4Cx0SMgSahOfrQGnSKFWvcWIsE4k6AD7W4I3bcDTgmHOeyqwymD635kGLFGjfWIoG4E+BDLe6IHXcDjgnHuYxiJUYuo1iJEUg2QwKxJsCJKdZEnd8exwR96HwC1npgW7HCJCRrDmUt9xDgd8A9voxVTzgmYkUyee3Qh9bY21asWOsOa5EACZAACZAACbiNAMWK2zzK/pAACZAACZCAywhQrLjMoewOCZAACZAACbiNAMWK2zzK/pAACZAACZCAywjYVqwwCcllI43diZgAvwMRI3N9BY4J57uYPrTmQ9uKFW7Rs+ZQ1nIPAX4H3OPLWPWEYyJWJJPXDn1ojT3FijVurEUCcSfAh1rcETvuBhwTjnPZVQbTh9Z8SLFijRtrkUDcCfChFnfEjrsBx4TjXEaxEiOXUazECCSbIYFYE+DEFGuizm+PY4I+dD4Baz2wrVhhEpI1h7KWewjwO+AeX8aqJxwTsSKZvHboQ2vsbStWrHWHtUiABEiABEiABNxGgGLFbR5lf0iABEiABEjAZQQoVlzmUHaHBEiABEiABNxGgGLFbR71YH+WLFki+MeLBLxMoGLFilK+fHkvI2DfXUzAtmKFSUguHnUx7lqfPn2kb9++MW6VzZGAswjge9C7d29nGe1Bazm3WXO6bcUKt+hZc6gXaxli5ZFHHpGHH37YiwjYZw8TWLZsmSxfvlwoVpwxCDi3WfMTxYo1bqxlIwKGWHnppZcE/3iRgJcIvPXWW4J/FCvO8DrFijU/UaxY48ZaNiJAsWIjZ9CUhBOgWEk48qhuSLFiDR/FijVurGUjAhQrNnIGTUk4AYqVhCOP6oYUK9bw2VasMAnJmkO9WItixYteZ58NAhQrzhoLnNus+cu2YsVad1jLiwTsJlZuuOEG5YYPPvhAmjVrllSXJMOWZNwzkZCt9M9KHd0+UazokmI5JxOgWHGy92i7IhCJWHnuuefk448/VvVq1qwpkyZNskQx3OQTz4kpmLHh7tezZ09VpUGDBvLPf/7TUl/tcs9Qxhv9x+fjxo2TunXrqqLnzp2Tu+++W44dOxZT8WjFv1bq6DqLYkWXFMs5mQDFipO9R9sjEiunTp2Su+66S86cOaPqZciQQTZu3Cg33XRTxCSdIlYi7phmhXhOvpom+Ir5i5UHH3xQFi5cqD6DEO3atauvXKwiXVb6bqWOLgeKFV1SLOdkAhQrTvYebY9IrEycOFG6desmN954o2TJkkV2796tojKdO3e+auIzJrapU6dKp06d1Od//PGH+l//ydHfBYGfv/jii7Jy5Ur1r0CBAjJq1Ci59957VZXDhw/Lm2++Kd98840cOXJE2fT444/Lq6++Kjly5Eh1H0y4q1evljVr1lzVjq4t/hP1559/Lh9++KH89NNPKvqQJ08edd8nnnhC3efll1+WX3/9VSDuwKl48eLy73//W8qUKRNR//3vOWvWLHXPzZs3qzaKFi0qTz/9tIr4GJfRl3D9DTbkjXrXX3+9iqIsXrxYcca5O/v37w8ZWdGx6a+//hL4cfbs2covr732mnTs2FGZYfQvUIiEGzNGHR3/6369KVZ0SbGckwmkEZErTu4AbScBg4DZOSuVK1eWdevWyZNPPinZsmWT999/XwoVKiQ//PBDRGIFSysjR45UdSpUqKCiNbj69++fajLPmDGjmowxeWLSvP/++5U4gUAoW7as/PLLL1KsWDEpWbKk/Pjjj7J+/XpV5quvvpK0adP6RBEiQA0bNryqHdxM1xZjkvzkk0/k2WefVXYiCoH7Q5iULl1aevToIQsWLFCiClwyZcqkBM2qVaskc+bMsmHDBsmZM2fE9zQiHOhT7dq1Vd8+/fRTuXz5srz33nvSsmXLVNzC9TecWMES37Bhw1SeUJMmTdS9IESHDh2aSlzg/+ja9MYbb8iQIUMUC/gAYm779u1RiZX69etr+V/3m22IFd3yLEcCdiZw5UpwSZLmjz/+oFixs+domykB42EdTqzgFz1+aeP67LPPlFgx3qOCCTowahAusoI2dJaBOnToIAMHDpTRo0eraAXEy4EDB2TmzJny1FNPSZo0aZRwwt/xC378+PE++3ASr3GPUO0YYHRsMfoDYQSRhCjKRx995GN78eJFSZ8+vfr/33//vRJwx48fl/Pnz8uYMWPU3xGZqlWrViphEWxpJdAeCLDffvtN9RXbNnF1795d9ff222+XtWvXpmrTrL+BA8L/fmCLSBb6uWLFCiVOERnC5W+rrk333HOP7Nu3TyCE8EoH/3FkNbICMabjf9OB//8FdMa/blssRwLJJoAIabCLYiXZnuH9oyag87CGWIBouPnmm1WeCn7dI7KwY8cOady4sVqiCCZCpkyZ4lsmMpZ5dMUKIjctWrSQwGWBwYMHqyWgUBdsgU3GJByqHStiJXfu3HLhwoVUEQ1/OxBdQZJqsGv48OHStGnTiMVKrly5BGIIQgWCBReECgQLJu6DBw+matOsv+HECh50zZs3V0UgrCCwgok5XZuQz3Tp0iUVXWnVqpUSlbfccksq8RPYfrAx418GglXH/7pfDJ3xr9sWy5FAsgmEFCtcBkq2a3j/WBEIFVnBBIMcCWNXSOD9rrnmGtm6dauKthiTOSaA9u3bq1wOTNK4/MUKckwQrsSygzE5hhIPgWJlxowZKu8hXbp0amkFOSPGtWfPHjUZ4jOdXAjUi8QWI7KCJQ0s9xiXEVmBLVimQj4J8jMQXSlSpEiqyTnSexpRjDZt2sg777yj2jJEUbDIillUK5xYwfIP7rdr1y6ZP3++iqYFEyu6NhmRFeQtvf7660EjKzpjxt8GRLB0/K/7veAykC4plnMCgZDLQFdCfZLkXvGUvyQ7wEG3N9u6jERKLC3gqlq1qm+5A0P/yy+/VKLj7bfflrZt24qR11KwYEGV8IolEEzegWKlRIkSKkH3jjvukEqVKqlITWDOSqhJ9+zZs1KuXDm1HINf+LAJ9bHEgNwVTLRIbNUVK1Zteeihh9TWXtyvVKlSKtLxwAMPqBwWiAjk4+AFeYE5GmARyT2NKAqWvbBdHBeW3sAdUabWrVurv+n2N5xYQb4K7EX0AoyDtYu/6dqEsYWcFyNnBUtMKSkpqcSbzpjx71u9evW0/K/7FWSCrS4pe5Tj3GbND7bdDcRT/qw51Iu1zMRKnTohxL6GAAAgAElEQVR1ZOnSpepXNn5t+19YpsHuGOQ1LFmyROU44Ffvzp075b777lO5D8EiK0iCRdQFuRhYJvAXMzqTLnaDDBgwQL7++mu1DILJEMIHEywiGvj1rdMO7huJLSiP/o4YMcK3Gyhv3ry+3UDIH8FunG3btkn+/PkFCaZG5Mg/5yPSe06fPl1FcrZs2aJYIVqDvA0sdxmXbn/NxIru5zo2ISqHKNCcOXMke/bs8sorr6j8FVwGD50xE9g3Hf/rfpcpVnRJ2aMc5zZrfrCtWLHWHdbyIgEzseJFJuyzdwhQrHjH117uKcWKl73vkr5TrLjEkeyGJQIUK5awsZLDCFCsOMxhNPdqAhQrHBVeJkCx4mXve6fvFCve8bVre0qx4lrXsmMaBChWNCCxiOMJ2FasMAnJ8WMrYR2gWEkYat7IhgQoVmzolDAmcW6z5i/bihVu77LmUC/WoljxotfZZ4MAxYqzxgLnNmv+olixxo21bETAECs4ot44Ut9G5tEUEogrgWXLlqnzcPA96N27d1zvxcajJ0CxYo0hxYo1bqxlIwKGWLGRSTSFBBJOgGIl4cgt3ZBixRI2oVixxo21bEQAL97DgW5uu7i27TaPRt+fcGMCJw4bL+eM/k5sIV4EKFaskbWtWOGD2ppDWcs9BPgdcI8vY9UTjolYkUxeO/ShNfa2FSvWusNaJEACJEACJEACbiNAseI2j7I/JEACJEACJOAyAhQrLnMou0MCJEACJEACbiNAseI2j7I/JEACJEACJOAyArYVK0xCctlIY3ciJsDvQMTIXF+BY8L5LqYPrfnQtmKF27usOZS13EOA3wH3+DJWPeGYiBXJ5LVDH1pjT7FijRtrkUDcCfChFnfEjrsBx4TjXHaVwfShNR9SrFjjxlokEHcCfKjFHbHjbsAx4TiXUazEyGUUKzECyWZIINYEODHFmqjz2+OYoA+dT8BaD2wrVpiEZM2hrOUeAvwOuMeXseoJx0SsSCavHfrQGnvbihVr3WEtEiABEiABEiABtxGgWHGbR9kfEiABEiABEnAZAYoVlzmU3SEBEiABEiABtxGgWAni0XXr1knZsmXl6NGjkilTJrf5nP0hARIgARIgAUcRsK1YMUtCWrNmjZQsWVLOnj0r11xzjaOg01gS0CFg9h3QaYNl3EWAY8L5/qQPrfnQtmLFbIsexYo1h7OWcwiYfQec0xNaGisCHBOxIpm8duhDa+xdK1YOHTokHTt2lG+//VYyZswoTZs2FQwS/DeuPXv2SKtWrWTlypVSsGBB6dChg3Tu3FkuXLgg69ev90VtNm7cqP571qxZ0qtXL9m1a5cUKVJEJkyYIMWKFbNGnbVIQIMAH2oakDxWhGPC+Q6nD6350LVi5dFHH5Vs2bLJ5MmT5dSpU1K1alWpXr26DBw4UJGqUKGC5M6dW8aPH68+r1OnjhIuocRKs2bNZPjw4ZI5c2Zp37697NixQ1asWGGNOmuRgAYBPtQ0IHmsCMeE8x1OH1rzoSvFyoEDB+SWW26RzZs3qygIrunTp0vXrl1l//79Yny+bds2KVy4sPockZOGDRuGFCuIqOTPn1+VXbp0qVSqVEmV5UUC8SLAh1q8yDq3XY4J5/rOsJw+tOZD24oVsySkcDkrWMa57777VMQkS5YsigyiJmXKlJHLly+rZZ7Az1etWiWlS5cOKVb8E3mNe0OspE+f3hp51iIBEwJm3wEC9B4Bjgnn+5w+tOZD24oVs+6EEyvBIiszZsyQLl26qMgK/uXJk0f8IyuzZ8+WBg0aUKyYgefnJEACJEACJJBgAo4XK8ePH091Fkq6dOkkQ4YMUrlyZbn++utl0qRJKsJSrVo1qVKligwaNEghLl++vOTNm1fGjh0rp0+fltq1a6sclFA5K4ysJHhk8nYkQAIkQAIk8P8EHC9WAj3ZvHlzmTJlispLwW6gRYsWKfHSpEkTGTx4sE/Y7N69W+0GWr16tdoN1LZtW3n++efl0qVLsnbt2qt2A1Gs8DtDAiRAAiRAAskh4FixEmtc06ZNk27duqklIl4kYJXAwYMH1Xb5GjVqSI4cOaw2w3okQAIkQAJ+BGwrVuKdhLRlyxa5cuWKFC1aVHbu3KmWgbA0NGzYMA4QEoiKAJYT27Rpo17Z0K5dOylVqpSl9uL9HbBkFCsllQDHRFLxx+Tm9KE1jLYVK/He3oUJBUtG+CWM9//UrVtXCRVj95A1nKxFAn8TwPhq3LixXLx4UfLly6fO5sHW+EiiLfH+DtBXziPAMeE8nwVaTB9a86FnxYo1XKxFAvoEDEGMfKfrrrtOJW8jyVs32sKHmj5rr5TkmHC+p+lDaz6kWLHGjbVIQIuAv2BBBZzLc+2110r27NlNoy18qGkh9lQhjgnnu5s+tOZD24oVnEDLiwTcTiBr1qwyevRowescdC8mgeuScl85TnTO9yl9aM2HthUrTEKy5lDWshcBRFZatGihzvIxLrxfCpEVvDwTL9hEHgvEuY4I0S1nLwq0JlYE+FyMFcnktUMfWmNvW7FirTusRQL2IeAvVHDWT5o0adSOs06dOl21Q0hXhOiWsw8FWkICJEAC0ROgWImeIVsggasIQKjgIEIk1eLt3v5RlGC4dEWIbjm6hARIgATcRIBixU3eZF9sQcA4Z6VkyZJBoygUK7ZwE40gARJwEAGKFQc5i6ban4DVE2x1Iya65exPihaSAAmQgD4B24oVJiHpO5ElnU9AV4TolnM+EfYgGAE+F50/LuhDaz60rVjh9i5rDmUtZxLQFSG65ZxJgVabEeBz0YyQ/T+nD635iGLFGjfWIoGYEtAVIbrlYmocG7MNAU50tnGFZUPoQ2voKFascWMtEogpAV0RolsupsaxMdsQ4ERnG1dYNoQ+tIaOYsUaN9YigZgS0BUhuuViahwbsw0BTnS2cYVlQ+hDa+hsK1aYhGTNoazlTAK6IkS3nDMp0GozAnwumhGy/+f0oTUf2VasWOsOa5GAMwnoihDdcs6kQKtJgARIIDgBihWODBKwAQFdEaJbzgZdogkkQAIkEDMCWmLl559/llGjRsXspk5vKG/evIKX0fEigVgReOONN2T27NmmzT3xxBPy6quvmpZjARIgARKwGwE8v2699VZLZmmJFbx4bfjw4ZZuwEokQAIkQAIkQAIk8P7770vnzp0tgYhIrNSsWVPKlClj6UZuqPTbb7/JRx99pN73cuedd7qhS+yDTQj07dtX5syZY2pN/fr1pXfv3qblWMCdBHbu3CkFChRwZ+c80isv+nDx4sXy6aefSsLESv/+/aVjx44eGVJXd3PZsmVSu3ZtAfgKFSp4lgM7HnsCurkouuVibyFbtAMBbnu1gxeis8GLPnzvvfekW7duFCvRDR392hQr+qxYMjICuiJEt1xkd2dppxDw4kTnFN/o2ulFH7pOrNxwww3K3x988IE0a9ZM1/cJK0exkjDUnruRrgjRLec5gB7psBcnOre51os+9IRYsZOAiYVYSZMmje+798orr8ibb74pxt+uXLni+yzY35L5pbWbPbFgsWPHDsX/u+++k4MHD8o111wjhQsXlvbt2yd8uVOXbyixols/Em6RtNmnTx9B3o1x+Y/lSO7JsuEJeHGic9uY8KIPKVYSPIpjKVY++eQTufvuu6VYsWIJFyvnz5+XjBkzRkQvkokrooaTVHj9+vVSrlw5OXfunBInDz74oJw8eVLlI126dEnmzp2bUMt0+SZSrEybNk0xaNKkiSmLjRs3Cv41bdpUlaVYMUVmqQBPP7WEzVaVvOhDR4mV1atXy8svvyy//vqrnDp1SrJkySLFixeXf//7374dRoFRFOP/B460P/74IymD76WXXlK7gZYuXSqPPPKIJRt0oyiB5XDODRKc9+7dq9hB6GDQ4zpz5oz07NlTZsyYIYcPH5bbbrtNunfvLk8//bT63GirV69eMmzYMOnatavgl3Dg9ddff6mdJlOnTpV9+/YJ+A8aNEhat27ta6Nfv37yzjvvSPr06dXZO/Xq1VPNYNLH+R8QYYhS5MqVSxo3biwob5xJo1Mmmn6GqxvY12rVqsnXX3+t/NmuXbtUH2N8Zs2aNab9SklJEZwx8Msvv0iPHj18UQhjUg/0dyifvv7667J///6rfBdYX4d1pDYZ94Cfhw4dqgSv/xjwH2sUK5YeD6xEAq4k4CixsmDBAvVgK1SokGTKlEl++uknWbVqlZrINmzYIDlz5lSTIy4jZwUT8MiRI9XfsPvmrrvuUv+NSTvRF5ZsPvzwQzXRDxkyxPLtrYoVTJ44jA5MEAFYsWKFfPzxx8qONm3ayPjx46Vu3bpSvnx5QQQIB4zhH7a6GvfEZ61atZI77rhDypYte1UfOnTooCbvUqVKqWgD7pM7d26VP2S0gfYglHCIGbZQYjs3LpQfM2aMQAQ0bNhQZs6cKV999ZWybezYsdploulnuLqBnUXZ06dPqz7ivzG5Q6QYF8ZjLPv1+OOPy8KFC+XJJ59U7cJfuEKJlVA+zZEjhxw7dsxUrOj4I1KbzMYAxYrlxwIrkoCrCThKrMAT33//vfzwww9y/PhxwVIEJjdcEydOlFq1al0lVvCZHXJWYiVUQj3MdQQMBMTWrVulRo0aSrRBFJQuXVrxy5Ytm5p0A6+2bdsqxkb7u3fvDnt6YPbs2eXEiROyZ88eJYz8L6MNRG4wYWbIkEG1e/nyZVXMqHvo0CG56aabVIQH0RXY9ueff2qXiaaf4eqaiRWIYiMS5S8iYtUvRMMQLcHYxwWG4cRKKJ9C3KOdwCtwDOnYHalNZmOAYsXV8w07RwKWCThKrCD0PW7cuKCdxem4WOsOJkySLVZiKVRCPcxvvPFGwdIWll6Qk4D/hVjAr3tM+rgw4ePQsE2bNsm8efMEIXwcslOnTh2fUEBE6h//+IePMaIioXJigjlCR6yEigQYdWGvYXcosRKuTDT9DFc3sL/GMhDEHEQdlte2bNkiVapUSSUiYtUvQxhADELgmYkV476BPsX3xBgTwcSk4R8duyO1KVAQ6Yhsy083ViQBEnANAUeJlTx58qhQO369vvbaa+oXZpEiRZQzjGWfYMIEEzkewMi1aN68eUKdF2uhEkqsIGcCSyUlS5ZUkyWWT9auXatyKbAsgwtLMVi6ue6661S0BFGqwYMHq4N2jOWbEiVKyDPPPKMiHitXrlTRDyxd6SZvGksHxjIQlkkgODBBmk1URt3HHntMLQPNmjVLLXsY0R30QadMNP0MVzdw4Kxbt04l2CJP56mnnlJLXxifYOkf8dCxWadM9erV5csvv1QMLl68aLoMFMqnyAmCX8wiK/GwyWwMMLIS/8eTF5Mz4081sXfwog8dJVYeeOABlVx7++23q/yT5cuXy/bt203FCiZgLF8gz6JSpUqSNm3ahOSsxEOohHqYI1fihRdeUDtQjhw5opZRkLiK5FYj0bNq1aqCCRYRGCwRIDKAHCD8gsaEi22jmMiwhIOlgqJFi8pzzz2nBJ6uWDGSMrELBEmcEI9vv/22ynMxm6hQFwm8gQm2yC/yT7A1KxNNP8PVDfY4wrIaElYXLVqkuIM1BDTYGgnIseoXImHI90GCLQQlkpSxVfrs2bPKtEC+oXwKm42lpHCRFR27I7XJbAxQrMR/0vPittf4U03sHbzoQ0eJFUQKkJy6bds2yZ8/v0rQNCIl4SIriDJg9wESObGlFFe8dwPFS6j4P8wRyr/22mvVP17uJ4Bxj4TyfPnyqeU8LH3iXVufffaZ6rzuYW+65XSImtmk04ZRBnk0+Aeh7R+ZiqQNljUn4MWJzpyKs0p40YeOEitOGU7xFCr+YgX/bRwK5xQ2tNM6Aex4Q7QMUUIjMoaXemGZLVlixcymSHrLQ+EioWW9rBcnOuu07FnTiz6kWInxWIy3UIG53377rc9qLIlhKzcvEtCNmOiWSzRRLPHin3E9+uijiTbBE/fz4kTnNsd60YcJFytI2sMWYzdeCMcjmTXac1TcyIZ9ij8BXRGiWy7+FvMOySDgxeTMZHCO5z296MOEi5V4OtAObVOo2MEL3rRBV4TolvMmRfaaBEjAjgQSJlYGDBigTk7t1KmTOjLcjReOj7d6hL4bebBPiSWgK0J0yyXWet6NBEiABEITSJhYicWN6EgSIIHQBHRFiG45siYBEiABuxCIhYZIc0XjjWOxuJFdoNEOErAjAV0RolvOjn2kTSRAAt4kEAsNYVux4sUkJG8OY/YaBHRFiG45UnUnAT4Xne9XL/rQ1WLFi9u7nP81ZA+sEtAVIbrlrNrBevYmwOeivf2jY50XfUixojMyWIYEHEBAV4TolnNAl2miBQJenOgsYLJ1FS/6kGIlTkMS77PBgML7WRYsWKDeZeTVa82aNeoFi3iHDd5lY5cL70nCix2PHj0qmTJlsotZlu3QFSG65Swbwoq2JuDFic7WDrFgnBd96GmxYkyieM09LmPrMaDgpYdWr4MHD6r8Aby1GG/iTfaFI9H79eun3rKMt+3ipYB4KSRehpeIA/qiESvR1E0290TfX1eE6JZLtP28X2IIeHGiSwzZxN3Fiz50tVgxS0IKnAiPHTsmnTt3lk2bNsmPP/4Y8cg7f/68ZMyYUdW9//77LUcSjHYiNiBIhf/85z/qZXd470rr1q3VW5BPnjwpX3/9tXzzzTcycuTIWNwmbBvRCI5o6sa9Yza7ga4I0S1ns+7RnBgRMHsuxug2bCaOBLzoQ1eLFbOxEmwiXL58uZQrV873dmZM7F26dJF58+apv9WtW1dGjBih3nRs1J80aZJ6A/SuXbtk6tSp0qJFCyVUELHJmjWrHDhwQA4dOiQdO3ZU7/WBoGnatKlaJsJ/B2sHIqN06dIyc+ZM6d27t+zcuVOKFCki48ePV+9P6dWrl/zyyy9y1113yeTJk+Xuu+8O2t3ixYtLkyZN1IF84a5w9qGe2ed79uyRVq1aqWhSwYIFpUOHDkr4XbhwQdavX59qGSgc00AbzcRKrOzauHGjsnHWrFmKLXwJ3hMmTJBixYqZDSVbfK4rQnTL2aJTNIIESIAERIRixS+XArkLOC4fr71fvXq1GiANGjRQImXixImSJk0a9dbbokWLytChQ30io3HjxjJ69GjJkCGDWmIJNsHipWx4Uy6ExalTp6Rq1apSvXp1GThwYNB2EN3B5AmhYYijp556SpYsWaJOyR02bJgSTPhbSkqKLFu27KoBvXfvXsmXL58SNRAQ4a5w9qGe2efIycmdO7cSU+hfnTp1lHAJJlbCMY1UrMTKLkOsNGvWTIYPH678iPdY7dixQ1asWOGIh4WuCNEt54hO00gSIAFPEKBYKVlSsmfPrpyNJEskXL7zzjtSoEABOXLkiOTKlUu2bt0qhQsXVmUWLlwoLVu2lMOHD/tEBiY0/xyXQLGCyAomiM2bN6tf67imT5+uhNH+/fuDtmO0gV/4+fPnV3UgSGAfREiePHl8f6tYsaISBYEXclVKlCihln0Q4cE1Z84cadOmjeAcPyT/IocFfQlnn5n9xucQeQYnRCgaNmx4lViBkAnHNBKxEku7DLHiz3vp0qVSqVKloGzt+HTQFSG65ezYR9pEAiTgTQIUK2F2qRiTvSFmMEQwySOnBJM8clOC7XIJFCtYBrnvvvtUxMFI5kXUoUyZMnL58uWgkZhg0RnjbxAmSAbGFexvxlAOF1nxr4eJOpx9ZvYH+3zVqlVqGSswsgJBAwEVimnatGlTfRPDLQPF0i5DrPjvWArH1o6PC10RolvOjn2kTSRAAt4k4GqxYpaEZJYPgV09N998c6pIhv8wCVVfJ7IyY8YMlQvjH1kJNlGaTZ5mE+o999wjWNoIzFnxr4cIUmBkxd++YBEM/8/RB0R6/CMrs2fPVktogWLlzz//DMs02siKVbsoVrz5APRir82ei15k4rQ+e9GHrhYrZtu7zMQKBjByL7CEghwR7KTBxI2JDbkSumIF7VSuXFmuv/56QTIuIizVqlWTKlWqyKBBg+IWWcF9Fy9eLLVr15a+ffv6dgNh+WfcuHFq67IRpQlnn5n9+Lx8+fKSN29eGTt2rIo64Z7I9QiWsxKOaSixcvz48VRnoaRLl07lCJnZrWsXxYrTHte01yoBs+ei1XZZL3EEvOhDihWTw8pOnDghPXr0kLlz58q5c+dUBAG7erp16xaRWIHIQb1FixapSRaJs4MHD1YTcLgln2gjK/j64PAznLOCHUZozzhnBcm5EA64wtmn8/nu3bvVbiAkJiOZt23btvL888+r5OS1a9emWi4LxzSUWAn8e/PmzWXKlCmmduvaRbGSuAct7xQ5AUR5sZOwRo0akiNHjsgb8KvhxYkuKmA2rOxFH3parNhwDLrGpGnTpilBhyUiO112tSsWjHRzUXTLxcImthE7AohU4kcAkr6R5G/1wEkvTnSx84I9WvKiDylW7DH2HG/Fli1bVPIxtnXjTBgsA2EJBstnybzsalc8mOiKEN1y8bCRbUZHAJFZHO6IiGWhQoXUmU7YdRdJtMWLE1101O1X24s+dLVY8WISUrK+VvjVh6UZhKuxtIXD8yBUjN1PtCv+BHRFiG65+FvMO1ghYAgW5G3hHCVELx977DHtaAufi1ao26uOF33oarFir+FFa0ggvgR0RYhuufhay9ajIWAIFuN8JZzFhCMVrrvuOkvRlmhsYV0SSAQBV4sVPJR5kQAJkIBXCOCt5tgIgB2MOFUbxxboXnbLL9O1m+W8QcDVYsUbLmQvSeBvAroRE91y5GpfAlh2xUnUiKacOXNGGYrXgSCygtd/YCce8lh0fa1bzr5EaJnbCVCsuN3D7J9nCOhOOLrlPAPOYR01hAqOIcCZSTj1GS/bfOmllwSv3vC/dH2tW85hqGiuiwi4Wqx4MQnJRWOTXYmQgO6Eo1suwtuzeAIIQKhgaQciJTCKEuz2ur7WLZeALvIWGgS8OLe5Wqx4cXuXxjhnEZcS0J1wdMu5FJNju2VEVPDSVCzzBEZRKFYc69qIDffi3EaxEvEwYQUSsCcBXRGiW86evfSmVVZPsNX1tW45b9K3X68pVjpbckqaKzgNzOSKhSoyu0fg5150aKSMWN49BHQnHN1y7iHj3Z7o+lq3nHdJ2qvnXpzbYqEhKFbsNY5pjUcJ6E44uuU8itFV3db1tW45V8FxcGcoVlwWWfFiEpKDv380PUoCuhOObrkozWF1GxDQ9bVuORt0iSaIiBfnNldHVjiqScBLBHQnHN1yXmLn1r7q+lq3nFs5sV/2J0CxYn8f0UIS0CKgO+HoltO6KQvZmoCur3XL2bqzNM7VBChWXO1eds5LBHQnHN1yXmLn1r7q+lq3nFs5sV/2J0CxYn8f0UIS0CKgO+HoltO6KQvZmoCur3XL2bqzNM7VBFwtVryYhOTq0crOhSWgO+HoliNu5xPQ9bVuOecTcUcPvDi3uVqseHF7lzu+iuyFFQK6E45uOSs2sI69COj6WrecvXrnXWu8OLdRrHh3vLPnLiOgO+HolrMjnjVr1kjJkiXlwoULkj59+lQmGp/hBX/XXHNNVOavW7dOypYtK0ePHpVMmTJF1RYqh7M76sbDNKDra91y8bSVbesToFhx2TkrXnSo/nBnSbcR0J1wdMvp8MH7anr06CGY3DNkyCAFChSQPn36SL169XSqR1wmUWIlYsNMKkQiVmIpunR9rVsu1lzYnjUCXpzbGFmxNlZYiwRsR0B3wtEtZ9bB06dPS758+eTll1+Wrl27KrHy448/ypkzZ6RcuXJm1S19TrESGTZdX+uWi+zuLB0vAhQrLouseDEJKV5fDrZrfwK6E45uObMe//TTT3LvvfeqpZIbbrghaPGTJ09Kly5dZN68eXLp0iWpW7eujBgxQq699lrf0sisWbOkV69esmvXLilSpIhMmDBBihUrptrbt2+ftGrVSp3YWbBgQenQoYN07txZaxno0KFD0rFjR/n2228lY8aM0rRpU8FDHv+Na8+ePartlStXXtX2+vXr1XITlpQ2btyo/jucnYGdN7N75MiR8v777ysb0qVLJ5UqVVJcMmfOLPAP7pslSxbV7KBBg+SZZ56RUHVuvvnmkK7S9bVuObMxwc8TQ8CLc5urIyuJGTa8CwnYg4DuhKNbzqxXiKBg2efBBx+Udu3aSalSpdRE6381aNBAiZSJEydKmjRp1PJQ0aJFZejQoT6x0qxZMxk+fLiaqNu3by87duwQLC/hqly5smTPnl0mT54sp06dklq1askPP/ygJVYeffRRyZYtm69u1apVpXr16jJw4EDVdoUKFSR37twyfvx41XadOnWUcEE+TDCxEs7OQFZmdi9YsEAJs0KFCglEFdqGgJs/f76PS2DuTbg6oXyl62vdcmZjgp+TQLwIUKzEiyzbJYEEE9CdcHTL6Zi/fft29cv/u+++k507dyrBgskfguTIkSOSK1cu2bp1qxQuXFg1t3DhQmnZsqUcPnzYNykjopI/f371+dKlS1WUAYLhwIEDSvxs3rxZTey4Zs6cKY0aNTIVK8ePH7+q7vTp09Vy1f79+31tb9u2zWcbIicNGzYMKVZC2RnIKVK7UX/x4sVSo0YNtYSmm7PiX4diRWe0soyTCVCsONl7tJ0E/AjoihDdcpHC3bt3r3Tq1El++eUXwRLRhg0bpESJEioyYlxXrlyR8+fPC/JdkN9iLLUYu3f8c1Kw/HLfffepqIexJILIx0MPPWQqViCQgtUtU6aMXL58WUVOAj9ftWqVlC5dOqRY8Y90hMudCdZ2oN1z5sxRIg9iD5En2IR+Xrx4USUrB3IBv3B1sJQU7NL1tW65SMcEy5NArAhQrMSKJNshgSQT0J1wdMtZ6Q4iI1hewQR88OBBQT4FREyePHmuai5YBMFfBCAyE8vIyowZM1T+DCIr+Aeb/CMrs2fPFixbhVoG0hUrZpEVRNrCWtkAACAASURBVJVuvfVWmTJliloWw9boRYsWqSUv3Bsi74EHHlB5K4aIg73h6gRu4zZg6/pat5yVMcE6JBALAq4WK15MQorFoGAbziSgO+HoljOjgGURLJ00btxY7Qr6888/5bnnnlMCAFEKXMgDyZo1qwwbNkwl4WIiR8QE+SRmYgUTcMWKFeXGG2+USZMmqchD7dq1Vds656xg8r/++ut9datVqyZVqlRREQ1c5cuXl7x588rYsWNVpAdtI1cmWrGCtsPZvXv3bpWrgiWxxx57TPD/sTT2/fffq3sj6fb222+XTZs2qeU0XL/++mvYOhQrZqPVXZ97cW5ztVjx4vYud30l2ZtICOiKEN1yuDdyPz7//HMlLpCM6n8hQoBdKsuXL1dCBRECbFkeMmSImmxxnThxQp3DMnfuXDl37pyKZmCHTrdu3bTESrgdO2aHwkEY4V6IWmBbdZMmTWTw4MG+Q94gErAbaPXq1Wo3UNu2beX5559XUaG1a9detRtIN7KCfpvZ/dZbb6mdSWgT+Tht2rSRp59+2ifCnn32Wfn4448VwwEDBqjPzOoEGyu6vtYtF8l4ZNn4EfDi3EaxEr/xxJZJIKEEdCccnXKYwBHNwESPyAPyRNx+TZs2TYkoLLm45dLxNfqqW84tXJzeD4oVl52z4kWHOv1LSPutE9CdcEKVQxQFu22QS5GSkqLO/xgzZoxgy68bry1btggSfrHUgp1MWAbC0hCWrNxyRTsm3MLBbf3w4tzGyIrbRjH741kCVicmI4ry9ddfq+UQJMQeO3ZMRo0apbbTuvVCfkrz5s1VIjCWsHBgHYSKsfPIDf22Oibc0Hc394FixWWRFS8mIbn5C8q+hScQycSEqIIRRUHeBJJfsd33r7/+UhEVtwsVr4ylSMaEm5a/3O5fL85tro6suH3Asn8k4E8gkonpuuuuExyFnzNnTnV4Gy8SoFjhGLAzAYoVO3uHtpFABAQiESs4uOzNN99UO30QWTEuRFiQx+GVpNoI8LIoCZBAEglQrCQRPm9NArEkEIlY8f8VjZNRsd0YJ89CqCDqgm3BFCyx9A7bIgESiIYAxUo09FiXBGxEwKpYMbqARFMj2oIzUXB6Ks768MK2ZRu5kaaQAAkEIeBqseLFJCSOcu8SiFas+JNDtGXkyJHy+++/y7hx4yhYXDSs+Fx0vjO96ENXixUvbu9y/teQPbBKIJZixbAh3Am2Vu1kveQS4HMxufxjcXcv+pBiJRYjh22QgA0IxEOs2KBbNCHGBLw40cUYYdKb86IPKVaSPuxoAAnEhgDFSmw4ur0VL050bvOpF31IseK2Ucz+eJYAxYpnXR9Rx7040UUEyAGFvejDhIsVjIM+ffpI7969pW/fvuq/4/X/27Vrp7Zfxqv9eNvP9uM7PtzGF1uOT506ZTres2bNqg6Ec1v/2R+97wveLo13PpGXHi87zh9VqlSRb775Jq7zp93GR/Xq1eXLL7+U999/Xzp3dtlx+w4QyDSRBGJGgJGVmKFkQyRAAjYjkPDISjSqyGbsaA4J2IoAxYqt3EFjSIAEYkjAFmIlTZo0vi698sor6mAq4284UdO4gv0thiwibspu9kTcgSAVduzYofh/99136m20OBiscOHC0r59e+nYsaOqEazfCJUaS3z+zcbCj5FyjrS8DrdI2gQLhFCNy38M69zLahmKFavkWI8ESMDuBGwlVj755BO5++67pVixYgkXK+fPn5eMGTNG5K9IJrCIGk5SYbwvply5coLTSyFOHnzwQZXbsHjxYrl06ZLMnTtXWTZt2jT1v02aNDEVkm4RK8H6HMpNGzduFPxr2rSpKkKxkqQBzduSAAm4hoCtxIpZFCVw4sNr7Pv37y979+6VLFmyKKGDk/1wnTlzRp588klZunSpHD58WG677Tbp3r27PP300+pzo61evXrJsGHDpGvXripZKfD666+/VDLw1KlTZd++fYIXvQ0aNEhat27ta6Nfv37yzjvvqPepwKZ69eqpZjDpv/rqqwIRhihFrly5pHHjxoLymTNn1i5j1s+ePXvKjBkzgvYzXN3AvlarVk2+/vpr+eijjwTJyf4XEjeRmOnPzvCXf2TMqBP4GXxgXDfddFOqSTzQr6H+/2uvvSaDBw+W22+/XXDC6h133BH0ixhYX8cPKSkp8sQTT6j34/To0cMXGQnsR+D/h3+HDh2qhK6/74NxivdTg5GVeBN2R/tePP3UHZ77Xy+86ENHixVMnnnz5hVM1ogArFixQr3LBFebNm1k/PjxUrduXSlfvrwsW7ZMZs+erf7Vr1/fJzTwWatWrdTEV7Zs2avGdIcOHdTkXapUKRVtwH1y584tzZo187WB9iCU3njjDSlQoID89ttvqh2UR9Y9REDDhg1l5syZ8tVXXynbsEtJt0w0/QxXN7CzKHv69GnVR/w3JnmIFOPKmTNnULGCqIMRRYAww2VEXYIJmVCCxkwYgCcu+OOxxx6ThQsXaokVHT88/vjjqj0IXFwYO7jMbArle4oVt00P7umPF7e9usd7f/fEiz50tFiBgNi6davUqFFD7rrrLiUKSpcurZyZLVs2NekGXsa2PWMS3b17t9x6660hx3L27NnlxIkTsmfPHiWM/C+jDUQNcuTIIRkyZFAC5vLly6qYUffQoUOCaALKIboC2/7880/tMtH0M1xdM7GCd8MYkahwE3e4idlghG12xoVtdzpCIFAowA/4G7hee+21SlgFuwIjKzp+QGQO0TgcL48L/tSxMZTvKVbcNj24pz9enOjc4z2KlWg26aS5orEoH04VBctruPHGG+WPP/5QSy8Ib+N/IRbw695YUsCEj+WATZs2ybx58wSh/E8//VTq1KnjEwoffPCB/OMf//CNVURFQuXEBBvQOmIl1K9voy7sNewOJVbClYmmn+HqBvbXWAZCNAiiDstrW7ZsETNxoSNWwi3xpU2bVomQixcvKmGIpbZgQsFf4FkRK+EYG2IF94fY1BUroXxPseK26cE9/aFYcb4vvehD20ZWjAPdSpYsqSZLLJ+sXbtW5VJgGQAXlmKwdIPDsDDBfv/99yqnoVu3bmIs35QoUUKeeeYZFfFYuXKlin58+OGHQRN4gw1hYwnBWAbCr3kIDix7mOVaGHWxZIFloFmzZqmlBiO6g/vplImmn+HqBvZ33bp1KsEWeTpPPfWUWvrCUhBYhosy4DNDmCH/B0tq6HOoCTuQG5bOdu3aJUOGDFGJqcYSWaAQ8F8GwgFBX3zxhVZkRYexceAQykI06S4DUaw4/8HvtR54caJzm4+96EPbihXkSrzwwgtqB8qRI0fUMgoSV5HcaiR6Vq1aVTDBIgKDpRVEBpDkiIkTEy4mHiTYYgkHCa1FixaV5557Tpo3b64tVozkTORl7N+/X/3qf/vtt1Wei5lYQV0k8AYm2CIp2D/B1qyMWT+xTRb3CNbPcHWDfYGxrPb666/LokWLFHewLlKkiGJrJCAHi4SBCRKHEf1A/g5Eh65YgY8hjuAzCCMkKwcTR+AEQVOwYMGIE2zNGCMqh/wTJNhC3MIGbNs+e/Zs0H6Y+Z6RFbdND+7pjxeTM93jvb974kUf2kqsIEyP8D7+8SKBRBLYtm2brFq1SvLly6eE0PDhw6VmzZry2WefRWwGcl/wL3DXU8QNRViBu4EiBMbiJEACjiFgK7ECasahcI4hSENdQWDDhg0qcoeEayNKh0QuLPlFevFQuEiJsTwJkAAJhCdgC7Hy7bff+qzEGRqFChWi30jAsQR+/fVXwT/jevTRRxPSF0ZWEoKZNyEBEkgCAVuIlST0m7ckAdcRoFhxnUvZIRIggf8n4Gqx4sUkJI5s7xKgWPGu7yPpOZ+LkdCyZ1kv+tDVYsWL27vs+dWiVYkgQLGSCMrOvwefi/ShEwlQrDjRa7SZBIIQoFjhsNAhQLGiQ8neZbzoQ4oVe49JWkcC2gQoVrRRebqgFyc6tznciz6kWHHbKGZ/PEuAYsWzro+o416c6CIC5IDCXvShq8WKF5OQHPA9o4lxIkCxEiewLmuWz0XnO9SLPnS1WEnmkMSR+lC/OEJ+wYIFUqFChWSaE/beeGUB3rF09OhRyZQpU1zsXLNmjeA9Tzi+HsfYJ/NKRH+T0T+KlWRQ5z1JgAQSQcDTYsWYQPHGXVzp06eXRx55RAAFL+Ozeh08eFC9KRovTsTLAJN94XRWvLcHL3rEixjxXqIHHnhAvQOnVq1aqcwLJipCCQ3j7xcuXFDswl2RipVIyyebsR3uT7FiBy/QBhIggXgQoFjx+7V/7Ngx6dy5s2zatEl+/PHHiHmfP39eMmbMqOref//9lqMIRjsRGxCkwn/+8x/1jhscAd+6dWv1IsaTJ0/K119/Ld98842MHDmSYiUWoG3QBsWKDZxAE0iABOJCgGIlYGli+fLlUq5cObl06ZICjom9S5cuMm/ePPW3unXryogRI9TLFo1f/5MmTZI33nhDdu3aJVOnTpUWLVoooYKIDd5afODAATl06JB07NhR8GoBCJqmTZuqZSL8d7B2IDJKly4tM2fOlN69e8vOnTvV24/Hjx+vjnLHW4TxhuC77rpLJk+erN50HOwqXry4NGnSRHr27BlyABn3h5143YFhOyrgLdeIDgVbwvGPrKxfv/6qMsE+HzNmjGKFJacnnnhCiaVgy0JmkZVwPGE33kCNN2MjuoW3NONtzhCiiAL524q3Q6Nvs2bNUkzhQ3CeMGGCFCtWLC5fung1SrESL7JslwRIINkEXC1WzJKQAidETKBdu3YVvIF39erVyjcNGjRQImXixImSJk0a9bK7okWLytChQ30io3HjxjJ69GjJkCGDWmIJNtHi/TB4QR6ExalTp6Rq1apSvXp1GThwYNB2EN3BJAqhYYijp556SpYsWaKWqoYNG6YEE/6WkpIiy5Ytu2os7d27V71FGKIGE3aoy99eY/L2zy3RWQbSFSsNGzZUggsisFq1alKlShV55513rjLNTKyE44nGkCOUO3dudS/wrlOnjhIuocRKs2bN1JuW4b/27dvLjh07ZMWKFcn+fkZ0f4qViHB5trDZc9GzYBzUcS/60NVixWx7lzEhZs+eXQ1TJJci0RSTZ4ECBeTIkSPqrbtbt26VwoULqzILFy6Uli1byuHDh30iAxObf45L4ESLiAUmks2bN6tf7bimT5+uhNH+/fuDtmO0gV/6+fPnV3UgSGAfREiePHl8f6tYsaKahAMv5KqUKFFCCQNEeHDNmTNH2rRpI1euXFHJv8hhQcKpETkJJ1YMTsZ9IOIgBAIFgBEpCRZZCcUg0PZwYsWMp/E5RKfhN0ROIJRCiRV/zkuXLpVKlSoFZWrn5xnFip29Yx/bzJ6L9rGUloQi4EUfUqyE2aFiTPb+kzQmeeSUYJJHbkq45REjOoGow3333acmdiOZF7/yy5QpI5cvXw4aiQmX6Oqf0BouyTVcZCXUEk68IyuhGEQiVsx4Bvt81apValktlFgJFknSSRy20+OUYsVO3rCvLV6c6OzrDWuWedGHFCthxAp29dx8882pIhn+Q8tsecSYAINFAmbMmKFyYfwjK2ZLL8GEidmOnHvuuUewxBGYsxJKrGD5CTuFzGwBB/82tmzZIsiPQcQpZ86cCtPnn3+uknv9BYJ/ZAUMkEcCPpGIFTOeYIrIk39kZfbs2WpJj2JFVJQPjHh5k4AXJzq3edqLPqRYMTn7A7kOWEJBjgh20mCiRPQBORO6YgVflMqVK8v1118vSMZFdMHI10ACq+52YStiZfHixVK7dm3p27evbzcQln/GjRunti4HTt5Gki1EC3Jz/EVJ4Bkp/vZcvHhRCbvnn39eXnnlFdm3b58glwd5H/73wN/Gjh2rIlNggCWswYMHhxQrx48fT3X2S7p06VRuUDieaKx8+fKSN29e373AINAW9CdcJImRFbc94tkfEPDiROc2z3vRh64WK2ZJSGZJnBjgJ06ckB49esjcuXPl3Llz6hc7dvV069YtIrECEYB6ixYtUpMtEmcxSSNPJp5iBX1ATgrOWcEOI0zQxjkrSM6FGAu8/7PPPisff/yx+n4PGDBALXWZ7QbCOSufffaZihYhIoWdNO3atVPJqv5ixdgNhHwgJCuPGjVKJQqHiqwE/r158+YyZcoUJRpD8USd3bt3q91ASJRGcnHbtm2VkEKezdq1a7VydChW3PaIZ39AwOy5SErxI4BnI3aE1qhRQ3LkyGH5Rl70oavFiuWRwIquIzBt2jQlMN28/KG7vKNbznWDgB0iARsQQIQXP56QxI/NGnY4ONQGWExNoFgxRcQCTiSAHBokQ2MpC2fUYBkIS0NYznPrpStCdMu5lRP7RQLJJvDBBx+oM6ywwaJQoULyr3/9S+1WjCbakuw+xfv+FCvxJsz2k0IAv16wZISwK5bacJgfhIqxGyspRsX5proiRLdcnM1l8yTgaQLII8ShmDj2AkdkIH8O504x2hJ8WFCsePrrws67iYCuCNEt5yY27AsJ2JGAIVhgGzYo4BwunPmEHEBGW1J7zNViBQ9lXiRAAiRAAiTgFALY8YhNAThsFKeeI/qC4yd0L7fm5blarHhxe5fugGY59xHQjZjolnMfIfYIBPhctM84wK4eLFdjp6lxIaqCg0hx0jj+IY9F9zurW84+BPQtoVjRZ8WSJGBrAroPKt1ytu4sjbNMgGLFMrqYVvQXKnjvHCIq2Bn0wgsvqNO2/S/d76xuuZh2JEGNUawkCDRvQwLxJqD7oNItF2972X5yCFCsJIe7/10hVHBAJs59wmGj/lGUYNbpfmd1yyWfQOQWUKxEzow1SMCWBHQfVLrlbNlJGhU1AYqVqBFG1QB2KmLHD15PEiyKQrESHK+rxYoXT/mL6lvEyo4moCtCdMs5GgaND0mAz8XkDQ6rJ9jqfmd1yyWPgPU7u1qsWMfCmiTgPAK6Dyrdcs4jQItJwJ0EdL+zuuWcSIlixYleo80kEISA7oNKtxwhkwAJ2IOA7ndWt5w9ehWZFRQrkfFiaRKwLQHdB5VuOdt2lIaRgMcI6H5ndcs5ER/FihO9RptJgJEVjgES8AwBXRGiW86J4FwtVphI5sQhSZutEtB9UOmWs2oH69mbAJ+L9vZPMOt0v7O65ZxHQMTVYoVb9Jw4JGmzVQK6DyrdclbtYD17E+Bz0d7+oVgJ7h+KFeeNW1pMAkEJ6IoQ3XLE7E4CFCvO86vud1a3nPMIMLLiRJ/RZhKgWOEYsEyAYsUyuqRV1BUhuuWS1pEobszIShTwWJUE7ERA90GlW85OfaMtsSNAsRI7lolqSfc7q1suUXbH8j6uFitMJIvlUGFbdieg+6DSLWfH/q5Zs0ZKliwpFy5cELyd1v8yPjt79qxcc801UZm/bt06KVu2rBw9elQyZcoUVVuoHM7uqBuPsAE+FyMEZoPiut9Z3XI26FLEJrharERMgxVIwMEEdB9UuuV0UOA9Jz169BBM7hkyZJACBQpInz59pF69ejrVIy6TKLESsWEmFSIRK7EUXbHuB9tLDgHd76xuueT0Irq7UqxEx4+1ScA2BHQfVLrlzDp2+vRpyZcvn7z88svStWtXJVZ+/PFHOXPmjJQrV86suqXPKVYsYWMlhxPQ/c7qlnMiDooVJ3qNNpNAEAK6DyrdcmaQf/rpJ7n33nvVUglecx/sOnnypHTp0kXmzZsnly5dkrp168qIESPk2muv9S2NzJo1S3r16iW7du2SIkWKyIQJE6RYsWKquX379kmrVq0ESxcFCxaUDh06SOfOnbWWgQ4dOiQdO3aUb7/9VjJmzChNmzYV5Gvgv3Ht2bNHtb1y5cqr2l6/fr1absKS0saNG9V/h7MzsO9mdo8cOVLef/99ZUO6dOmkUqVKikvmzJkF/sF9s2TJopodNGiQPPPMMxKqzs0332zmKn7ucAK631ndck7EQbHiRK/RZhKwgVhBBAXLPg8++KC0a9dOSpUqpSZa/6tBgwZKpEycOFHSpEmjloeKFi0qQ4cO9YmVZs2ayfDhw9VE3b59e9mxY4dgeQlX5cqVJXv27DJ58mQ5deqU1KpVS3744QctsfLoo49KtmzZfHWrVq0q1atXl4EDB6q2K1SoILlz55bx48ertuvUqaOEC/JhgomVcHYGusPM7gULFihhVqhQIYGoQtsQcPPnz/dxCcy9CVeHXwh3E9AVIbrlnEjL1WKFiWROHJK02SoB3QeVbjkdO7Zv365++X/33Xeyc+dOJVgw+UOQHDlyRHLlyiVbt26VwoULq+YWLlwoLVu2lMOHD/smZURU8ufPrz5funSpijJAMBw4cECJn82bN6uJHdfMmTOlUaNGpmLl+PHjV9WdPn26Wq7av3+/r+1t27b5bEPkpGHDhiHFSig7AzlFajfqL168WGrUqKGW0HRzVvzr6PjKKMPnYiS07FFW9zurW84evYrMCleLFW7Ri2wwsLSzCeg+qHTLRUpj79690qlTJ/nll18ES0QbNmyQEiVKqMiIcV25ckXOnz8vyHdBfoux1GLs3vHPScHyy3333aeiHsaSCCIfDz30kKlYgUAKVrdMmTJy+fJlFTkJ/HzVqlVSunTpkGLFP9IRLncmWNuBds+ZM0eJPIg9RJ5gE/p58eJFlawcyAX8wtXBUpLuxeeiLin7lNP9zuqWs0/P9C2hWNFnxZIkYGsCug8q3XJWOovICJZXMAEfPHhQkE8BEZMnT56rmgsWQfAXAYjMxDKyMmPGDJU/g8gK/sEm/8jK7NmzBctWoZaBdMWKWWQFUaVbb71VpkyZopbFsDV60aJFaskL94bIe+CBB1TeiiHiYG+4OoHbuMP5jmLFyshObh3d76xuueT2xtrdKVascWMtErAdAd0HlW45sw5iWQRLJ40bN1a7gv7880957rnnlABAlAIX8kCyZs0qw4YNU0m4mMgRMUE+iZlYwQRcsWJFufHGG2XSpEkq8lC7dm3Vts45K5j8r7/+el/datWqSZUqVVREA1f58uUlb968MnbsWBXpQdvIlYlWrKDtcHbv3r1b5apgSeyxxx4T/H8sjX3//ffq3ki6vf3222XTpk1qOQ3Xr7/+GrYOxYrZaHX257rfWd1yTqRBseJEr9FmEghCQPdBpVvODDIiBNilsnz5ciVUECHAluUhQ4aoyRbXiRMn1Dksc+fOlXPnzqloBnbodOvWTUushNuxY3YoHIQR7oWoBbZVN2nSRAYPHuw75A0iAbuBVq9erXYDtW3bVp5//nkVFVq7du1Vu4F0Iyvot5ndb731ltqZhDaRj9OmTRt5+umnfSLs2WeflY8//lgxHDBggPrMrI6Zv4zPGVnRJWWfcrrfWd1y9umZviWuFitMJNMfCCzpfAK6DyrdciCCRNXPP/9cRUKwc8bN17Rp05SIwpKLmy8+F53nXd3vrG455xFw+YsMnegQ2kwCVgnoPqh0ymF5Z/To0fL777/LuHHjVFKr264tW7YIEn6x1IKdTFgGwtIQlqx4kYCdCOh8Z2Gvbjk79U3XFldHVnQhsBwJuIGA7oMqVDkkxL7xxhvyxRdfqCUbJHdiKcKNQgX+Rn5K8+bNVSIwlrBwYB2EirHzyA1jgn1wB4Fov9tuoECx4gYvsg8kEMGvqsAHH6IoOE01JSVFcbzuuuvUSwKReOpWocIBQwJOIkCxwmUgJ41X2koCYQlE8kDDWSBGFAVJnsaFnTc484NChYONBOxDIJLvtltzrlwdWWEimX2+bLQk/gQieaAheoL39tx0003qNFleJEAC7iBAsRLaj2muIEvN5IqFKjK7R+Dn3KIXKTGWdzKBSMQKkktxdD0OJkNkBREVnPqKXBWchoqX5tWsWdPJOGh7CAJ8Ljp/aHjRh7HQEBQrzh/77IELCEQiVvx/feGcERy69vXXX6vzRvDG4D/++IOCxQVjIlgXvDjRuc2VXvQhxYrbRjH741kCVsWKAQxnqhjRFiTbIsIyZswYwduKebmHgBcnOvd47++eeNGHFCtuG8Xsj2cJRCtW/MEZ0Rac/spkW3cNKS9OdO7yIMVK586dLbnUtstATLC15E9WciiBWIoV/2iLV06wdajbIzabz8WIkdmughd96OrIiu1GGA0igTgSiIdYiaO5bJoESIAEtAkkXKzglEgcac2LBEggtgRwbsrs2bNNG33iiSfk1VdfNS3HAiRAAiRgFwJ4K/mnn36qDrBMyDKQXTpOO0iABEiABEiABJxFIO5iBS9Ew2vieZEACcSHQN++fWXOnDmmjdevX1969+5tWo4FSIAESMBuBOrVqye33nqrJbO0EmwttRxlJS8mIUWJjNUdTIA5Kw52XgJN53MxgbDjdCv60BpY24oVbtGz5lDWciYBihVn+i3RVvO5mGjisb8ffWiNKcWKNW6sRQIxJUCxElOcrm2ME53zXUsfWvMhxYo1bqxFAjElQLESU5yubYwTnfNdSx9a8yHFijVurEUCMSVAsRJTnK5tjBOd811LH1rzoW3FCpOQrDmUtZxJgGLFmX5LtNV8LiaaeOzvRx9aY2pbsWKtO6xFAs4kQLHiTL/RahIggcQQoFhJDGfehQTCEqBY4QAhARIggdAEKFY4OkjABgQoVmzgBJpAAiRgWwIUK7Z1DQ3zEgGKFS95m30lARKIlIBtxQqTkCJ1Jcs7mQDFipO9lzjb+VxMHOt43Yk+tEbWtmLF7tu71qxZIyVLlpSzZ8/KNddcY41+hLXWrVsnZcuWlaNHj0qmTJkirB2+eDzbjqmhNmmsf//+gjH6119/yYIFC6RChQohLdMZKxQrNnGszc2w+3PR5vhsYR59aM0NnhIr/fr1k169esmECROkVatW2sSCTTY6E5D2DYIUjGf78Ww7mj47pe7BgwcF4mLlypVSqlQpU7N1eFOsmGJkARElkLt3704WDiZAH1pznmfEyuXLl6VgwYKSI0cOyZIlOwdnOQAAH6xJREFUiyxfvlybGMWKNipPFPzxxx/l/vvv146qUax4YlgkpJOc6BKCOa43oQ+t4fWMWFm4cKE0bNhQVq1aJcWKFZOffvpJ7rnnHkUtnBg5cuSIeqU1lnsgcnANGjRI/aLGMtCsWbNUtGbXrl1SpEgRFbVB+7hOnjwpXbp0kXnz5smlS5ekbt26MmLECLn22mt99wxWP3/+/OqXe6h7GktPp06dkhdeeEHmzJkjp0+flttuu00+/vhjKVGihIwcOVLef/992bNnj6RLl04qVaqk7p05c2attg8dOiQdO3aUb7/9VjJmzChNmzZVv+rw3wavcH0PHI5DhgxR9f/44w+5/vrr5fnnn1e/EMOxv3DhgqRPn17C9TPcZ+H4w75QNoX77NNPP5VmzZr5fJM1a1a1DBS4JGj0C31Yv3696ZIhIyvWHmBeq8WJzvkepw+t+dC2YiXWSUj16tUTTCyTJ0+W8uXLS/HixWXYsGGmYiXUZGNMRpi4hg8frkRA+/btZceOHbJixQrVboMGDZRImThxoqRJk0ZgQ9GiRWXo0KG+STpUfZ1oTv369QViaurUqZIvXz5JSUlRuSwQV5hAIZ4KFSokEB64D0TS/PnzwwoEQwg9+uijki1bNsULgqBq1apSvXp1GThwoKntgUNx586dcvvttyvhU7lyZTlx4oTgb/CBjlgJ189wn4XjH86mcJ8FE7dmfaBYsfZwYq2rCcT6uUjGiSdAH1pjbluxYq07wWvt27dPRR0+//xzNemOGTNGRSTwd4gMK5ONUQcRFURCcC1dulRFMCBwICJy5colW7dulcKFC6vPEd1p2bKlHD582HfPUPXNxAqiBmgfE+G9995rimvx4sVSo0YNOXPmjKlYOX78uIq+bN68WQkeXNOnT5euXbvK/v37TW0PNAZ1IKAQ6fnXv/4l2bNn9xUxY3/s2LGQ/QTHUAzM+IezKdxnFCumQ40FSIAESCDmBDwhVt544w358MMP5ffff1dLIn/++afcfPPN6m+tW7eOSqz47wbyD/1v2rRJLcf4T8xXrlyR8+fPqyUb5D1EunTgP7Fv27ZNtY+oh7E85T86sDSE5art27er6A5ydlD24sWLgp0/oe6N/kBg3XfffanaRjJpmTJlVDtmAgNLN4EX7EEkC3WxTIbdNNhBY9aWwTFYPzds2BCSgfFZKP5p06ZVy2fBbILt4T4LtNmsD4ysxPy5xQZJgAQ8RsD1YsVIrMWvZeRKGBe2/z7wwANqyebnn39WSxL4pZ4zZ05VBFGYmjVrqigJJj6UDSZMQokVtA9BtHfvXsmTJ89Vw8psgjO7pxFZQTnY7n8ZkYEpU6aopScsDS1atEgtwej0J1hkZcaMGSr/xj+yEqrvwcSKYR+2+g4YMEA++OADFX0yY29EVoL104isBPsMO3bC8ffnFWiT2WeBvjPrA8WKx56q7C4JkEDMCbherHzxxRdSq1YtWb16teTNm9cHEBPcY489phJt77zzTjWxIenzlVdeUctDjRs3VkIGkzuSVJFzgV/5yDnBZSY2MGHXqVNH5cng1/sNN9wgBw4ckI0bNwryQczq69zziSeeUAmrSKqFIDJyVmAzclWw7IQ+7t69Wy0/ff/999r9gbCBuJs0aZKKsFSrVk2qVKmiojVmtgeKld9++01++eUXKVeunEqYHTx4sLz99tsCQXHu3Lmw7FE+VD+xtBTus3D8w9kU7rNgvjfrA8VKzJ9bbJAESMBjBGwrVmKVhIQJCxPe7Nmzr3ItljX++c9/ql/5n332mYocYALFMkW7du1UwqyxI+XZZ59VogAXIgNYRgm3jIN7IpG0R48eMnfuXDUpQ1Bgh023bt20JnyzeyK6gh01RvvInUGyLXJY3nrrLbX7BtEP5J20adNGnn76ae3+QFjBVkRkMmTIIE2aNFEiA1GaSMUKlqIglpADg2Wou+66S7VlHKRmxj5cP8N9Fo5/OJvM7A3W/3B9oFjx2FM1jt2N1XMxjiayaRMC9KG1IWJbsRLJ9i4sW2DZBhGL3LlzWyPBWiSQRALcupxE+A66dSTPRQd1y1Om0ofW3O1osYIdLnA8lhjGjRsnDz30kDUKrEUCSSZAsZJkBzjk9pzoHOKoMGbSh9Z86DixgigKnI2ETywBYFkCSx8UKtYGAGvZgwDFij38YHcrONHZ3UPm9tGH5oyClXCMWEEUBXkY2HmBHT4QKTgjhREVa45nLXsRoFixlz/sag0nOrt6Rt8u+lCflX9J24oVJCFh541/FAXnlODCSaw49p1CxZrTWct+BChW7OcTO1rE5Ew7eiUym+jDyHgZpW0rVhBJ6dChg9o2e80116jdNMaFA71wAi0OO3vnnXfUjhvsioGw4f8nDyeOB4xb3Qtn3fAiARIgAS8RsK1YgROQnzJz5kz1fhojPwXH0+PC1mC8NBDngfAiARIgARIgARJwLwFbixV/7DjUDQeUffXVV76TSXEGCgWLewcne0YCJEACJEACIOAYsWK4yz/agi3LeNfP+PHjGWHheCYBEiABEiABlxKwrVjRSUIyoi04ZXXs2LHcvuzSQerVbul8B7zKxqv95phwvufpQ2s+tK1YiWR7F0+wteZ81rI3gUi+A/buCa2LFQGOiViRTF479KE19q4QK9a6zlokYG8CfKjZ2z/JsI5jIhnUY3tP+tAaT4oVa9xYiwTiToAPtbgjdtwNOCYc57KrDKYPrfmQYsUaN9YigbgT4EMt7ogddwOOCce5jGIlRi6zrVhhElKMPMxmHEuA3wHHui5uhnNMxA1twhqmD62htq1YsdYd1iIBEiABEiABEnAbAYoVt3mU/SEBEiABEiABlxGgWHGZQ9kdEiABEiABEnAbAYoVt3mU/SEBEiABEiABlxGwrVhhEpLLRhq7EzEBfgciRub6ChwTzncxfWjNh7YVK9yiZ82hrOUeAvwOuMeXseoJx0SsSCavHfrQGnuKFWvcWIsE4k6AD7W4I3bcDTgmHOeyqwymD635kGLFGjfWsjmB48f/lJEjR8v585fk8uXLNrc2uHl//fWXZMqUyZG2p0mTRtKmFalQ4REpW7ZsUvuwaNH3snTpcrlyJalmxOTmTh4T/gDSpUsrmTNnlA4d2km2bNm02LjFj172oZajQxSyrVjhul40bmXdAQPekTp1Gst11+k9CEksPgSWLftW0qW7JI0aNYrPDUxanT17jpw6dVEqVaqWlPvzpqEJnDp1QhYunCXPP9/NFBP9aIooKQUi8WG0BtpWrETbMdb3NoHevftLu3bPehuCDXqPCMuUKSPk5ZdfToo1/fu/JS1adEzKvXlTcwKTJ4+Unj1fMi1IP5oiSloBXR9Ga2DMxcqSJUukYsWKcvjwYcmZM6fPPuPvx44dkxw5ckRrN+uTQFgCr73WT9q370RKNiAwY8YY6d69e1Is4SSXFOzaN9Wd6OhHbaQJL6jrw2gNc5VYuXjxoqRPnz5aJqzvAgIUK/ZxIsWKfXxhN0t0JzqKFbt57n/26Pow2h4kTayMGjVK+vXrJ/v27ZPcuXNLjx49pFu3/61dDh06VIYPHy6//fab5MqVS9q0aSO9e/eWdOnSqT4bkZovvvhC/X39+vUyZ84cqVmzZrRMWN8FBChW7ONEihX7+MJuluhOdBQrdvOcR8TK8ePHpWDBgtK/f39p2rSpWjLav3+/1KpVSxHo06ePTJs2TYYMGSLFihWTrVu3Svv27aVZs2ZK4PiLlRIlSsh7770nBQoUkCxZsqRaerKve2lZvAlQrMSbsH77FCv6rLxWkmLF+R7X9WG0PU1KZCUlJUVKliwpGzZskOLFi6fqw5kzZ5Tg+O677+Shhx7yffbJJ59Ip06d5OjRo6nEyvz5830iJ1oYrO8eAhQr9vElxYp9fGE3S3QnOkZW7OY5j0RWsmbNKmXKlJHt27croVG7dm2pX7++WuL54YcfpFSpUipK4n9dunRJzp07JydPnhTUN5aB9u7dK3ny5LGvJ2lZUghQrCQFe9CbUqzYxxd2s4RixW4eidweXR9G3nLqGjGPrOB8lIcfflj27NkjefPm9d3tyy+/lOrV/6+9M4GOqrzb+POlRglUKNpYkQgqYETQUJADBIEDLikoQfJREmqJFBJWWdpg4NCwCiGAQSQQwr4UkLBFAxRZDmEz7GUXIaEVCLLzKRYRY+N3/i+dYTKZzNw7M8ncuXnuOZ4j8L73/v+/5977PvNutz2k5yQoKAiFhYXYtGkT5O+XL1+ONm3aICsrC/v27UPz5s2xa9cuPP744yXyk+GjgIAAq1mxX3XkKRDWNwcBI5iVPXt2Izr6TRw5chaPPPKoT8FaYjlx4hyqVq3mMhZvxk6z4hK3wwLe1MC9CEqv5a3YtDZ03u5Z8Vb8erj64prO4vNWPFo11MPKUVmvm5UrV66gRo0a2LBhgzInliMlJQVpaWmQnhD7Y9WqVWrTKDEy0oMSHByM+fPnqzkqpR2lLZH2FAjrm4OAVrNy4sRRdOjQBk2aNENW1ibdyTszAVpeBpYy0lt46FCeMvKWIz//NNq1a6b+qNVklJYAzYpzab/77hbmzp2JTZvW49y5f6Gw8CfUqPEEmjULR/fuvdCoURPd94anFbTcP/bXcKeOO3EWFv6Ib775P/z6149B9tJx99Da0Gk1K1p1tI/fnee4rJ4ps2ro7j1iqed1syIn7ty5M06fPo2MjAw1kfbgwYPo1asXBg8ejFGjRmH//v3qv1dffVUtNR43bhy2bduGCxcuqBt/7NixkNVAMnG2devWqhfm0KFD6pxSXw6aFU+lN3d9rWblr39NwLFjh3H8+BFs3boHdeuG6gLjzkvO9gKW+k88URNDhyahS5du1n8ePz4JGzZ8gosXC2hWdKlyv7CWRu7Klcvo0qU9goN/g96938XzzzfEL37xAC5dKsDu3Ttw5Mg/sGhRppsRuF/NnUbLnTruR+h5TW+aFU90dOc59nez4rl6986gVUNPr1cmZuXWrVtITExUwzo3b95Uw0FiVkaMGKHmpZw6dQoDBgxQJkbmoTRu3FiZE5mrYjnmzJmjli7LSqDAwEA0aNBArQiKi4ujWfFU9QpQX4tZkXuvSZNnkZY2D/PmpatGKilpvJWOoxe//QuqVq2SGxyeP/+NOoel7NKla5GSMhanT59C/foN8NFHc1CnTr1iZQYPTsTevbuxatXf1d//9FMhmjZ9Ht2798S0aZOsZkX2EvrwwxSsXr1craKrVas2+vYdjJiY7ta4pUxKyhisXv0x7tz5Hi1btsGbb3bGkCF91HlOnjxeYnjKPi9HuS9cmIHFi+fh/PlzahJ8dHR3DBkyzLqdQGm3ldGHgeLi/oBbt77Fxx9nO8zl559/tvYeaOXvSiP5ZZ+cPBpZWSuVRq1bt1MaDRwYZ9XaHQ1cmRUt8bsTm5Z73dH9obWh02I69ehoz0nLc2w/nGv7zOh5ppYv/wSpqck4fvyoGkXo02cQevTo7fS9Y8vOXzX0tNkpE7PiaVCsTwKeEtBiVtauXYHJk99Hbu5xbNyYjaSkoThw4BQeeCCwmJGwfUnZN+obN65Dnz7dsX37QTz88MOqnvxCtzUrMsQ0cuR4VKtWDQkJA9THCTMz1xcrI/UjIl5WvTu1az+Nzz5bD+lZmTw5DTExHa0NmMQovS1TpsxA/foNsXPnNowc+R6Sk6eia9e31TlHjx6O7Ow1mDIlTZXZsWOryvPmzRtumxVpfOWco0Yl47nnGuDs2TNITByEt976PRITRzqVy8hm5dtvv0FY2DNYuDATbdu+5vK208JfS5kRI/6CzZv/jsmTpyM09Hns3r0dkyaNw/XrV0s1K1o0cGVWyio2y3Wd3etlaVb06mjPSctz7C2z8tRTz6jnqLTn16wauny4XBSgWfGUIOsbkoAWs9K16xto0aIV/vzn4daejAkTPkCHDp00mxUt3ccrVqxDePi9Lw+vX5+FQYPicebMZTUEavtikoZEXmTS+PfoEY3GjV9C06YtVC+I9IjIEGlYWB188EEaoqJirNwnThytGr6cnAP497+/U2WmTJlerMyECSMxe3aaW2YlKKgywsKeVj0PTZrc7/389NPVyigdO/YvvzUrR44cQmTkK9i37ws1R8VyxMe/jV27cqx/PnDgS/X/rvjLnAlXZUSjF198BtOmZSAy8n+t15Det/T0Dx2aFa0aOGvoyio2mTxuua6ze70szYoeHeXjpvactDzHlStXLpbCf/5ThLt3f9D9TInuJZ/fjcjJ2V/qe8dyYX/W0NOGgmbFU4Ksb0gCrszKV1/9E23bNsXu3UdRs2aIykEa/VOnTmLJktVeNSuHD+fh0UeDi53z5Mnz6ovQti9Nmez73nvvIitrC1q1+i127z4CidNiVs6ezUOnTq9iz54T1pjlpNu2bUaPHl2Rn38FX3xxQjW+pZVxZxjowoVz6NixHUp7WZ86dbHEVgO2N4WRe1ZKa+SuXr2sJvwfPnwQgwf3Vg2SFv4yHOBKI0uZvXtPQuYqWQ6LjpbJ1Lb3hlYNnJkVyaUsYrM1K87udV+YFUc6ymo4d8zKunXbUK3a/WFf23tDzzCQs+f3wQcfKhGbLTd/1tDThsJQZkU2i5PlzDKXwHJUqlQJERERqFu3rqe5sn4FIuDKrEycOAazZk0rNkdB5ibIIcNC0ojs3fs5pPfFtvs3N3cnYmIiS/z6dbRaR8ucF9syv/pVdbRs+SJq1XoKDz1USZkm2198WhpLi1lx1hBKGa15Se6yOkYauTVrPkNw8GMl7iKJV7YTKO0wslmRFS2NGtXBggUfo127iBIp6OWvx6zY9+bk5GzBO+/83mHPilYNvGVW9MRma1acDZmWpVnRo6O7ZsXZMJCeZ6q0Z1N+bHjTrBhNQ0+bH0OYFdlqX5Yq16xZG61bv4ZKlSqjqOhnBAT8D3744Xvs3LkFFy+eU5N0ZVk0DxJwRcCZWZEJas2aNUCvXn3xyiu/K3aqIUN6IyLiTTVx9OTJY2jfvrXqnq1T51lVTiaZypwQiznZv3+PWkkiQyFiNmwPvWZFXvpTp05UE2ozMhar4SjbxlIMgQwfOB4GuteNfH8YSIaKoq3hJCePQkbGdBW3/Ep3lZdt7GKcpEGXOTAyR0XvYWSzIrn06tUN8jX4lSvXWecrWXJ0h78rjSxd+R99NBsdO0ZZccqclZkzpzo0K1o1cGZWLMNPzu4fd2IzglnRo6Mjs6L3OZbr2d4bep6padNmF3s25YfTvWFc18NA/qyh3veGfXmfmxXZcj87ex1iY/shIKD0LyYXFf2EJUtmITKyI8LCwjzNm/VNTsCZWZEXQ9++sTh06AyqV3+kGAnpbfnb3xbg88+P/nceS321UkPmkeTnn1FzNORXrsWsyLLiFi0aIjU1He3ava7mlVg2gHPHrMgqIFlNJ8ZHzIn9WLpcf/36T5RhqV//BTXBVua62E6wHTUq0VomNLSBmnsxadJY3LhxXcUte7k0beo8L/vYZXLnwoWzMWbMRDRr1lJtJyDLvaW3R4yds8PoZuXy5UuIiopQvUZ9+gxEgwYvql+4X39dgKVLF2Dt2kzIsN0vf/mw0t8Vfy1lZILtli0ywTZNTbCVHjtptK5du6Ku5WhehRYNLLrJBG77zf9kJdro0cNcxu9ObFru9bLsWZFz69HRPl69z7G9WdHzTD39dB2MHi0T1RuqZ1Oe3/ffn2Jd0WdWDT1tcnxqVqRHZe7c+ejZcyD+2wPvNB/Ze2jBgjTEx7OHxVPhzV7fmVnp2TMGd+/exbJlWSUwnD//FV5+uRFkubGYFDEDshfLpUtf46WXmqFr1z9gyJC+xfY9SUv7QC3plZUcRUVFsF+67Kxr3NXMf3uzIr1C0vsiS5evX7+uli7L0sdu3WKtuYjhkWWxa9asUMtiZRJxp05drEuXpRFzlZejuJYvX4TFi+ciPz8PgYEP4Nln66Nbt3eKXdvRfWV0syIxy9LlOXNmWDeFk55dmXDbvHlLxMbG4YUXGqnUtPF3rZEsD54wYZQyQjJJMzy8DTp0iERCQn8196i04QBXGlh0c6SDzC2SlWiu7h93YjOCWdGjo6N49TzH9mZFzzMl7xZZuixDhrIFgBjkP/2pr1Uys2roaZvjU7Myduw4xMb2L9H16iwpeREvWZKO0aPvbQ7HgwQcEXA1Z4XUyo+AP5iV8qNR+pVmzEjFsmWLsGfPcSOEUyyGsorNm/usGA6awQLytYae4vCZWcnLy8POnXvx+uuRunPYvDkbrVs3R7169zbW4kEC9gRoVoxzT9CslNRCJmR++eVJtRRcNsrctWs7xo4dDtkcsF+/IT4Vrzxjo1kpG6mNqKGnmfrMrKSnp6Nt20g1Dqz3kElGOTnZ6N+/v96qLF9BCNCsGEdomhXHZiUxcSDk+08//vgjQkJqqeE0GdJztrKqPFSVhq68YqNZKRtFjaihp5n6zKykpEzG22/3cTv+ZctmY/jwRLfrs6K5CdCsGEdfmhXjaGG0SGhWjKaI/ni0aqj/zMVr+MysaPnWg7PkyguQp4BZ3zcEaFZ8w93RVWlWjKOF0SLR+h73tL0wWt5mikerhp7mTLPiKUHWNyQBmhXjyEKzYhwtjBaJ1oaOZsVoyt2PR6uGnmbgM7MyffoMvPbaW27PWdmy5RMMGvSup/mzvkkJ0KwYR1iaFeNoYbRItDZ0NCtGU64CmZXTp88gJycXb7zRWbcKGzZkoW3bcISG3ttVlAcJ2BOgWTHOPZGZORdDhw71SUATJkxCbOz9PSx8EgQvWioBrWaFOhr3JtKqoacZ+KxnRQIfMWIU4uIGIjDwQc15yIZF8+alITl5nOY6LFjxCIhZiYsboHaU5eE7AjduXMWBA9sRHx/vkyBmzsxA8+bt8Nhjv/HJ9XnR0gnIt7iWLs3AiBHDXWKiji4R+aSAHg09DdCnZqWg4CJmzpyD/v3/ojmP9PSpGDCgN0JC7n+tVHNlFqwwBLZu3Y6LF686/DhdhYHg40SvXr2CzMwFGD9+HB58UPsPEm+GLTsVDx+ehD/+MZ6GxZtgvXCuHTs2o3btx9GqVSuXZ6OOLhH5pIAeDT0N0KdmRYI/cOAfWLv2U8THv+u0h0V6VObOnYGoqE5o2rSxp3mzfgUgsHLlauTnn60AmRozxerVqyEurhcCAwN9GqDsYzJnznz1zSUexiAgny0IDa2L6Oj7H9t0FRl1dEWofP/dHQ09idDnZkWCP3++ALNmzUFIyFPqY3C2G8XJBnDbtm1GQcFX6NevN2rVCvEkX9YlARIgARIgARLwMwKGMCsWZidOfImNGz/D7dvf4/TpUwgNrY8qVSqjffvfoWHD5/wMLcMlARIgARIgARLwBgFDmRXbhFJTU5GQkOCNHHkOEiABEiABEiABPyZAs+LH4jF0EiABEiABEqgIBGhWKoLKzJEESIAESIAE/JgAzYofi8fQSYAESIAESKAiEKBZqQgqM0cSIAESIAES8GMCNCt+LB5DJwESIAESIIGKQIBmpSKozBxJgARIgARIwI8JlItZWblyJS5cuKALU25uLsLDw3XVefLJJ9G1a1dddViYBEiABEiABEjA2ATKxay4g4D7rLhDjXVIgARIgARIwHwEaFbMpykzIgESIAESIAFTEaBZMZWcTIYESIAESIAEzEeAZsV8mjIjEiABEiABEjAVAZoVU8nJZEiABEiABEjAfARoVsynKTMiARIgARIgAVMRoFkxlZxMhgRIgARIgATMR4BmxXyaMiMSIAESIAESMBUBmhVTyclkSIAESIAESMB8BGhWzKcpMyIBEiABEiABUxGgWTGVnEyGBEiABEiABMxHgGbFfJoyIxIgARIgARIwFQGaFVPJyWRIgARIgARIwHwEaFbMpykzIgESIAESIAFTEaBZMZWcTIYESIAESIAEzEeAZsV8mjIjEiABEiABEjAVAZoVU8nJZEiABEiABEjAfARoVsynKTMiARIgARIgAVMRMKRZuXPnDnr27IkFCxYgKCjIVMCZDAmQAAmQAAmQgD4ChjMrRUVFGDNmDGJiYrBixQr1/wEBAfqyYmkSIAESIAESIAHTEDCcWUlNTUVkZCTq1auHvLw8ZGdnIyEhwTTAmQgJkAAJkAAJkIA+AoYyK0uWLEHdunURHh5uzSI3Nxf5+fmIjY3VlxlLkwAJkAAJkAAJmIKAYczKpk2bcPv2bURFRZUAu3btWlSpUgURERGmgM4kSIAESIAESIAEtBMwhFk5evQopAelX79+pUY+a9Ys1eMSFhamPTuWJAESIAESIAES8HsCPjcrBQUFWLRoEZKSklzCHD9+PHr06IGQkBCXZVmABEiABEiABEjAHAR8alZu3bqFSZMmqRU/gYGBLokWFhaqssOGDUPVqlVdlmcBEiABEiABEiAB/yfgM7PirvHQa3D8XyJmQAIkQAIkQAIVm4DPzIonQzp6ho4qtrzMngRIgARIgAT8n4BPzIo3JstqmZTr//IwAxIgARIgARIggXI3K95chuxsuTOlJQESIAESIAESMAeBcjUrZbHBm6ON5MwhDbMgARIgARIgARIQAuVmVspy63zbLfopKwmQAAmQAAmQgLkIlItZuXbtGtLS0srso4SWjx8OHDgQwcHB5lKI2ZAACZAACZBABSdQLmZFNn2Ljo5GUFBQmeG+c+cOMjMz1aZxPEiABEiABEiABMxDoFzMinlwMRMSIAESIAESIIHyJkCzUt7EeT0SIAESIAESIAFdBGhWdOFiYRIgARIgARIggfImQLNS3sR5PRIgARIgARIgAV0EaFZ04WJhEiABEiABEiCB8ibw/9EDFj8DvbUWAAAAAElFTkSuQmCC;" vertex="1" parent="1">
          <mxGeometry x="76" y="40" width="675" height="540" as="geometry" />
        </mxCell>
      </root>
    </mxGraphModel>
  </diagram>
</mxfile>
